HIERARCHY
ROOT Hips
{
	OFFSET 0.000000 0.000000 0.000000 
	CHANNELS 6 Xposition Yposition Zposition Yrotation Xrotation Zrotation
	JOINT Spine
	{
		OFFSET 0.000000 0.072080 0.012321 
		CHANNELS 3 Xrotation Yrotation Zrotation
		JOINT Spine1
		{
			OFFSET 0.000000 0.126984 -0.001294 
			CHANNELS 3 Xrotation Yrotation Zrotation
			JOINT Spine2
			{
				OFFSET 0.000000 0.106559 -0.010096 
				CHANNELS 3 Xrotation Yrotation Zrotation
				JOINT Neck
				{
					OFFSET 0.000000 0.108417 -0.034017 
					CHANNELS 3 Xrotation Yrotation Zrotation
					JOINT Neck1
					{
						OFFSET 0.000000 0.033906 0.007241 
						CHANNELS 3 Xrotation Yrotation Zrotation
						JOINT Head
						{
							OFFSET 0.000000 0.031458 0.006707 
							CHANNELS 3 Xrotation Yrotation Zrotation
							End Site
							{
								OFFSET 0.000000 0.179920 0.000962 
							}
						}
					}
				}
				JOINT LeftShoulder
				{
					OFFSET 0.048002 0.079586 -0.029634 
					CHANNELS 3 Zrotation Xrotation Yrotation
					JOINT LeftArm
					{
						OFFSET 0.096243 -0.008695 -0.014012 
						CHANNELS 3 Zrotation Xrotation Yrotation
						JOINT LeftForeArm
						{
							OFFSET 0.216305 0.000000 0.000000 
							CHANNELS 3 Xrotation Zrotation Yrotation
							JOINT LeftHand
							{
								OFFSET 0.217764 0.000000 0.000000 
								CHANNELS 3 Zrotation Yrotation Xrotation
								JOINT LeftHandThumb1
								{
									OFFSET 0.018582 -0.007835 0.020476 
									CHANNELS 3 Zrotation Xrotation Yrotation
									JOINT LeftHandThumb2
									{
										OFFSET 0.026269 -0.007835 0.022186 
										CHANNELS 3 Zrotation Xrotation Yrotation
										JOINT LeftHandThumb3
										{
											OFFSET 0.035170 -0.010504 0.017018 
											CHANNELS 3 Zrotation Xrotation Yrotation
											End Site
											{
												OFFSET 0.020312 -0.007813 0.007813 
											}
										}
									}
								}
								JOINT LeftHandMiddle1
								{
									OFFSET 0.081749 0.004803 0.003358 
									CHANNELS 3 Zrotation Xrotation Yrotation
									JOINT LeftHandMiddle2
									{
										OFFSET 0.045251 0.000000 0.000000 
										CHANNELS 3 Zrotation Xrotation Yrotation
										JOINT LeftHandMiddle3
										{
											OFFSET 0.029009 0.000000 0.000000 
											CHANNELS 3 Zrotation Xrotation Yrotation
											End Site
											{
												OFFSET 0.017969 0.000000 0.000000 
											}
										}
									}
								}
								JOINT LeftHandIndex1
								{
									OFFSET 0.081207 0.004803 0.021137 
									CHANNELS 3 Zrotation Xrotation Yrotation
									JOINT LeftHandIndex2
									{
										OFFSET 0.043354 0.000000 0.000000 
										CHANNELS 3 Zrotation Xrotation Yrotation
										JOINT LeftHandIndex3
										{
											OFFSET 0.026493 0.000000 0.000000 
											CHANNELS 3 Zrotation Xrotation Yrotation
											End Site
											{
												OFFSET 0.019531 0.000000 0.000000 
											}
										}
									}
								}
								JOINT LeftHandRing1
								{
									OFFSET 0.080666 0.002509 -0.014652 
									CHANNELS 3 Zrotation Xrotation Yrotation
									JOINT LeftHandRing2
									{
										OFFSET 0.042541 0.000000 0.000000 
										CHANNELS 3 Zrotation Xrotation Yrotation
										JOINT LeftHandRing3
										{
											OFFSET 0.029009 0.000000 0.000000 
											CHANNELS 3 Zrotation Xrotation Yrotation
											End Site
											{
												OFFSET 0.015625 0.000000 0.000000 
											}
										}
									}
								}
								JOINT LeftHandPinky1
								{
									OFFSET 0.078227 -0.000612 -0.030993 
									CHANNELS 3 Zrotation Xrotation Yrotation
									JOINT LeftHandPinky2
									{
										OFFSET 0.028721 0.000000 0.000000 
										CHANNELS 3 Zrotation Xrotation Yrotation
										JOINT LeftHandPinky3
										{
											OFFSET 0.021963 0.000000 0.000000 
											CHANNELS 3 Zrotation Xrotation Yrotation
											End Site
											{
												OFFSET 0.022656 0.000000 0.000000 
											}
										}
									}
								}
							}
						}
					}
				}
				JOINT RightShoulder
				{
					OFFSET -0.047970 0.079586 -0.029634 
					CHANNELS 3 Zrotation Xrotation Yrotation
					JOINT RightArm
					{
						OFFSET -0.096274 -0.008695 -0.014012 
						CHANNELS 3 Zrotation Xrotation Yrotation
						JOINT RightForeArm
						{
							OFFSET -0.216305 0.000000 0.000000 
							CHANNELS 3 Xrotation Zrotation Yrotation
							JOINT RightHand
							{
								OFFSET -0.217764 0.000000 0.000000 
								CHANNELS 3 Zrotation Yrotation Xrotation
								JOINT RightHandThumb1
								{
									OFFSET -0.019670 -0.007318 0.019638 
									CHANNELS 3 Zrotation Xrotation Yrotation
									JOINT RightHandThumb2
									{
										OFFSET -0.025498 -0.008492 0.023179 
										CHANNELS 3 Zrotation Xrotation Yrotation
										JOINT RightHandThumb3
										{
											OFFSET -0.034504 -0.010705 0.016680 
											CHANNELS 3 Zrotation Xrotation Yrotation
											End Site
											{
												OFFSET -0.020312 -0.007813 0.007813 
											}
										}
									}
								}
								JOINT RightHandIndex1
								{
									OFFSET -0.081770 0.003825 0.021187 
									CHANNELS 3 Zrotation Xrotation Yrotation
									JOINT RightHandIndex2
									{
										OFFSET -0.042006 0.000000 0.000000 
										CHANNELS 3 Zrotation Xrotation Yrotation
										JOINT RightHandIndex3
										{
											OFFSET -0.026449 0.000000 0.000000 
											CHANNELS 3 Zrotation Xrotation Yrotation
											End Site
											{
												OFFSET -0.020312 0.000000 0.000000 
											}
										}
									}
								}
								JOINT RightHandMiddle1
								{
									OFFSET -0.084059 0.003825 0.003342 
									CHANNELS 3 Zrotation Xrotation Yrotation
									JOINT RightHandMiddle2
									{
										OFFSET -0.043881 0.000000 0.000000 
										CHANNELS 3 Zrotation Xrotation Yrotation
										JOINT RightHandMiddle3
										{
											OFFSET -0.029191 0.000000 0.000000 
											CHANNELS 3 Zrotation Xrotation Yrotation
											End Site
											{
												OFFSET -0.017969 0.000000 0.000000 
											}
										}
									}
								}
								JOINT RightHandRing1
								{
									OFFSET -0.081798 0.003030 -0.015127 
									CHANNELS 3 Zrotation Xrotation Yrotation
									JOINT RightHandRing2
									{
										OFFSET -0.042198 0.000000 0.000000 
										CHANNELS 3 Zrotation Xrotation Yrotation
										JOINT RightHandRing3
										{
											OFFSET -0.026497 0.000000 0.000000 
											CHANNELS 3 Zrotation Xrotation Yrotation
											End Site
											{
												OFFSET -0.017188 0.000000 0.000000 
											}
										}
									}
								}
								JOINT RightHandPinky1
								{
									OFFSET -0.077902 -0.000930 -0.030891 
									CHANNELS 3 Zrotation Xrotation Yrotation
									JOINT RightHandPinky2
									{
										OFFSET -0.028538 0.000000 0.000000 
										CHANNELS 3 Zrotation Xrotation Yrotation
										JOINT RightHandPinky3
										{
											OFFSET -0.021734 0.000000 0.000000 
											CHANNELS 3 Zrotation Xrotation Yrotation
											End Site
											{
												OFFSET -0.022656 0.000000 0.000000 
											}
										}
									}
								}
							}
						}
					}
				}
			}
		}
	}
	JOINT LeftUpLeg
	{
		OFFSET 0.075264 -0.025573 0.000000 
		CHANNELS 3 Xrotation Yrotation Zrotation
		JOINT LeftLeg
		{
			OFFSET 0.000000 -0.326016 -0.013516 
			CHANNELS 3 Xrotation Yrotation Zrotation
			JOINT LeftFoot
			{
				OFFSET 0.000098 -0.306172 -0.006623 
				CHANNELS 3 Xrotation Yrotation Zrotation
				JOINT LeftToeBase
				{
					OFFSET -0.001432 -0.095259 0.064705 
					CHANNELS 3 Xrotation Yrotation Zrotation
					End Site
					{
						OFFSET 0.000000 0.000000 0.079438 
					}
				}
			}
		}
	}
	JOINT RightUpLeg
	{
		OFFSET -0.075264 -0.025573 0.000000 
		CHANNELS 3 Xrotation Yrotation Zrotation
		JOINT RightLeg
		{
			OFFSET 0.000000 -0.326016 -0.013516 
			CHANNELS 3 Xrotation Yrotation Zrotation
			JOINT RightFoot
			{
				OFFSET 0.000098 -0.306172 -0.006623 
				CHANNELS 3 Xrotation Yrotation Zrotation
				JOINT RightToeBase
				{
					OFFSET -0.001432 -0.095259 0.064705 
					CHANNELS 3 Xrotation Yrotation Zrotation
					End Site
					{
						OFFSET 0.000025 0.000000 0.079438 
					}
				}
			}
		}
	}
}
MOTION
Frames: 4
Frame Time: 0.033333
0.001282 0.736819 0.001034 -2.558000 -2.387500 2.020200 14.319000 -1.091200 -2.493700 -4.344000 -0.844300 0.932500 -4.329100 -0.772000 1.030100 -0.100900 1.689900 -2.622600 -0.000000 0.000000 -0.000000 -5.840200 0.460700 1.540100 -4.401000 3.468600 0.030000 -67.783203 23.680000 -10.733400 8.419700 -4.450400 -19.909100 7.965700 4.652100 -13.708200 -4.384800 2.799900 26.802900 0.955500 -1.135700 -1.632800 3.646000 -3.271700 -4.274200 -21.695900 2.186700 -6.760900 -21.340200 0.404500 -2.145400 -21.198900 0.390800 -2.127700 -19.468500 2.587200 -5.568600 -19.806000 0.295100 -1.955400 -19.669500 0.336000 -1.961100 -25.465401 2.469400 -8.763500 -24.031401 0.509400 -2.393300 -23.851900 0.496600 -2.377600 -29.357500 2.826600 -11.189500 -26.845100 0.633300 -2.653900 -26.635300 0.623800 -2.634600 1.341300 2.309100 -2.654200 73.438400 6.840500 5.766700 13.663400 8.858800 10.649900 -9.155900 -4.420000 4.542100 -3.012800 1.685000 -22.575500 0.066200 -2.051300 6.306400 -4.285500 -0.064000 -4.659900 21.792601 4.260000 9.490100 22.111700 0.290500 1.720300 21.995001 0.339300 1.725800 25.619200 3.666500 9.468500 24.589100 0.421700 1.942800 24.459600 0.418000 1.931500 30.566799 3.833500 10.747600 28.006001 0.546200 2.190500 27.831699 0.534000 2.185800 35.257401 3.963100 12.305900 31.268600 0.670100 2.429900 31.056400 0.663700 2.410900 -9.584900 4.768500 -5.910700 29.623199 -6.952200 -0.927500 -14.634400 -1.701500 9.674300 0.871400 0.000000 -0.000000 -29.355801 -4.298900 -5.581100 65.054703 -1.588100 -0.519200 -6.553800 -0.691600 7.534200 0.968600 -0.000000 0.000000 
0.000204 0.735430 0.029090 -2.585800 -1.808100 1.899500 13.411100 -1.249800 -1.629500 -4.063000 -0.931400 0.396900 -4.058100 -0.859300 0.526200 -0.415000 1.216300 -0.632300 -0.000000 0.000000 -0.000000 -5.993100 0.515500 1.112200 -3.044800 3.172500 0.090600 -68.334801 25.164400 -10.367500 7.333100 -3.848100 -22.065100 7.523700 6.528000 -13.092600 -4.384800 2.799800 26.802900 0.955500 -1.135700 -1.632800 3.853500 -2.782100 -2.782900 -22.642900 2.207600 -5.838100 -22.552200 0.455200 -2.253900 -22.403299 0.438500 -2.239300 -19.824200 2.605100 -5.086000 -20.844400 0.332000 -2.055300 -22.086100 0.427800 -2.190500 -26.137600 2.476000 -7.006500 -24.779100 0.539000 -2.458600 -23.851801 0.496500 -2.377600 -29.909201 2.704700 -9.316800 -26.844999 0.633100 -2.653900 -26.635401 0.623900 -2.634600 2.386600 2.098000 -4.718800 73.341698 6.573000 7.644800 16.056801 9.656200 6.902200 -10.091300 -2.895500 4.424500 -1.741600 2.127500 -20.775499 -0.150000 -2.912700 7.181100 -4.354700 0.172200 -5.345100 23.186899 4.162000 8.260700 21.279699 0.265400 1.657300 21.745501 0.331000 1.707300 26.384300 3.452800 8.478700 24.146799 0.405400 1.912500 24.213400 0.409100 1.914600 31.246500 3.676200 9.577400 27.727501 0.536400 2.172000 27.525000 0.520000 2.165600 35.413601 3.869700 11.430600 30.988199 0.658200 2.411700 30.763599 0.651100 2.391900 -7.254300 4.501300 -5.889800 28.962999 -6.916900 -0.899700 -16.890400 -1.876700 9.768000 0.871400 -0.000000 -0.000000 -32.026199 -4.876200 -4.807200 56.557598 -4.700900 -0.744800 -9.783200 -0.918000 8.098100 2.891700 2.339000 -1.745500 
-0.001249 0.733638 0.057710 -2.407200 -1.274900 1.939400 12.622400 -1.360000 -0.815700 -3.825600 -0.906300 -0.184800 -3.832700 -0.855700 -0.040900 -0.800600 0.471000 0.339300 -0.000000 0.000000 -0.000000 -6.204400 -0.154600 1.537100 -1.856500 2.937900 -0.346400 -68.688698 26.096701 -10.136400 6.750400 -3.075000 -24.255699 7.240800 7.436800 -12.183700 -4.384800 2.799900 26.802900 0.955500 -1.135700 -1.632800 4.078500 -2.216300 -1.077200 -23.725599 2.230500 -4.779500 -23.940500 0.509800 -2.378700 -23.782400 0.494000 -2.369400 -20.231600 2.625200 -4.532900 -22.033701 0.376600 -2.168900 -24.853901 0.539600 -2.448200 -26.903900 2.476000 -4.993100 -25.635700 0.573900 -2.533100 -23.851900 0.496500 -2.377600 -30.527300 2.554400 -7.171800 -26.844999 0.633200 -2.653900 -26.635300 0.623800 -2.634600 3.472100 1.871600 -6.893700 73.271599 6.170400 7.027700 18.446600 9.548200 7.235600 -10.983400 -3.174000 4.417800 -0.481300 2.649200 -18.896900 -0.354400 -3.827900 8.085200 -4.416300 0.392700 -5.982800 24.838499 4.079700 6.982500 20.457701 0.241600 1.594800 21.593300 0.325900 1.695800 27.307301 3.234500 7.465600 23.768101 0.391500 1.885700 24.061100 0.403600 1.904200 32.036999 3.511900 8.399400 27.506201 0.528700 2.157300 27.273300 0.511100 2.148200 35.636501 3.769600 10.562800 30.729900 0.647500 2.394900 30.491199 0.639500 2.374200 -4.418700 4.213400 -6.015600 27.451599 -7.101500 -0.820200 -18.726400 -2.015100 9.805900 0.871500 0.000000 -0.000000 -33.255798 -5.729100 -4.122100 46.230801 -3.904100 -0.686500 -10.758500 -0.390000 4.853500 5.466700 -1.547700 2.185600 
-0.003240 0.731354 0.086995 -1.964000 -0.848100 2.151400 12.111800 -1.404700 -0.057700 -3.695000 -0.719400 -0.830900 -3.715600 -0.727400 -0.698900 -1.196000 -0.632500 0.649400 -0.000000 0.000000 -0.000000 -6.427500 -1.538700 2.768400 -0.655900 2.753700 -1.524100 -68.940300 26.843100 -9.757200 6.539600 -2.039000 -26.369499 7.195600 7.709700 -11.284000 -4.384800 2.799900 26.802900 0.955500 -1.135600 -1.632800 4.292800 -1.625900 0.679600 -24.840099 2.252700 -3.685700 -25.372101 0.571100 -2.512500 -25.205200 0.554600 -2.502300 -20.651501 2.645300 -3.962000 -23.260799 0.425100 -2.285100 -27.709101 0.668100 -2.708500 -27.690001 2.467600 -2.915000 -26.518700 0.613600 -2.614800 -23.851801 0.496600 -2.377600 -31.149099 2.388400 -4.958900 -26.844999 0.633200 -2.653900 -26.635300 0.623800 -2.634600 4.561000 1.642300 -9.102400 73.278801 5.742400 5.957000 20.231701 9.520200 7.445500 -12.220400 -3.119500 4.394100 0.705400 3.228600 -17.021500 -0.525900 -4.730800 8.973400 -4.477800 0.622100 -6.643900 26.348400 3.985200 5.725400 19.630501 0.218500 1.531500 21.392401 0.319300 1.680900 28.136801 3.014300 6.463900 23.357599 0.376300 1.855100 23.861900 0.396500 1.890400 32.758499 3.345500 7.225200 27.256300 0.520100 2.140600 26.994200 0.501300 2.128900 35.820900 3.669800 9.691600 30.460501 0.636200 2.377300 30.208700 0.627400 2.355800 -0.940400 3.870800 -6.262700 24.929600 -7.580600 -0.649400 -20.061001 -2.098200 9.751200 0.871400 -0.000000 -0.000000 -33.191399 -7.052000 -3.671400 34.914902 0.252600 -0.425500 -8.628100 0.736300 -0.482400 6.131100 -7.971100 7.813200 
